<svg xmlns="http://www.w3.org/2000/svg" viewBox="0 0 160.09 127.96"><defs><style>.cls-1{fill:#d7282f;}</style></defs><g id="Layer_2" data-name="Layer 2"><g id="Layer_1-2" data-name="Layer 1"><path class="cls-1" d="M29.71,110.43a.46.46,0,0,1-.34.15H27a.46.46,0,0,1-.34-.15.42.42,0,0,1-.14-.33v-7.35H19.69v7.35a.42.42,0,0,1-.14.33.46.46,0,0,1-.34.15H16.84a.46.46,0,0,1-.34-.15.43.43,0,0,1-.15-.33V93.19a.43.43,0,0,1,.15-.33.53.53,0,0,1,.34-.13h2.37a.53.53,0,0,1,.34.13.42.42,0,0,1,.14.33v6.63h6.83V93.19a.42.42,0,0,1,.14-.33.53.53,0,0,1,.34-.13h2.37a.53.53,0,0,1,.34.13.42.42,0,0,1,.14.33V110.1A.42.42,0,0,1,29.71,110.43Z"/><path class="cls-1" d="M41.79,110.43a.46.46,0,0,1-.34.15h-2a.52.52,0,0,1-.48-.48v-.39a7.9,7.9,0,0,1-1.68.78,5.27,5.27,0,0,1-1.7.28,6.81,6.81,0,0,1-1.49-.17,3.23,3.23,0,0,1-2.3-1.85,4.53,4.53,0,0,1-.37-2v-.1a3.69,3.69,0,0,1,1.37-3.11,7.55,7.55,0,0,1,4.49-1h1.51v-1.07a1.9,1.9,0,0,0-.51-1.57,2.67,2.67,0,0,0-1.6-.39c-.77,0-1.51,0-2.23.06s-1.28.08-1.68.13h-.12a.61.61,0,0,1-.32-.07q-.12-.07-.12-.33V97.74c0-.27.16-.43.46-.5.48-.09,1.06-.18,1.74-.26a19.59,19.59,0,0,1,2.27-.12A6,6,0,0,1,40.58,98a4.26,4.26,0,0,1,1.36,3.46v8.65A.43.43,0,0,1,41.79,110.43Zm-3-5.81H37.24a6.06,6.06,0,0,0-1.34.13,2.09,2.09,0,0,0-.82.39,1.26,1.26,0,0,0-.41.63,3.44,3.44,0,0,0-.11.89v.1A1.42,1.42,0,0,0,35,108a2.31,2.31,0,0,0,1.33.3,4.74,4.74,0,0,0,1.29-.19,6.22,6.22,0,0,0,1.17-.48Z"/><path class="cls-1" d="M53.54,109.17a5.49,5.49,0,0,1-4.33,1.6,18.85,18.85,0,0,1-2.42-.17,20.48,20.48,0,0,1-2.4-.45,1.16,1.16,0,0,1-.53-.26.55.55,0,0,1-.12-.39V92.78a.45.45,0,0,1,.14-.34.49.49,0,0,1,.34-.14h2.21a.47.47,0,0,1,.33.14.46.46,0,0,1,.15.34V97c.44-.06.87-.11,1.27-.13s.74,0,1,0a5.52,5.52,0,0,1,4.33,1.6A6.45,6.45,0,0,1,55,102.89v1.85A6.45,6.45,0,0,1,53.54,109.17Zm-1.76-6.27a7.13,7.13,0,0,0-.11-1.36,2.88,2.88,0,0,0-.39-1.08,2.11,2.11,0,0,0-.79-.72,2.83,2.83,0,0,0-1.28-.26c-.29,0-.66,0-1.11,0s-.86.07-1.19.12V108a7,7,0,0,0,1,.12c.44,0,.88.05,1.31.05a2.83,2.83,0,0,0,1.28-.26,2,2,0,0,0,.79-.72,2.9,2.9,0,0,0,.39-1.07,7.28,7.28,0,0,0,.11-1.36Z"/><path class="cls-1" d="M59.44,95.09a.45.45,0,0,1-.33.14H56.78a.52.52,0,0,1-.35-.14.47.47,0,0,1-.16-.34V92.64a.47.47,0,0,1,.16-.34.49.49,0,0,1,.35-.15h2.33a.43.43,0,0,1,.33.15.46.46,0,0,1,.15.34v2.11A.46.46,0,0,1,59.44,95.09Zm-.07,15.33a.42.42,0,0,1-.33.16H56.83a.44.44,0,0,1-.34-.16.47.47,0,0,1-.14-.35V97.51a.42.42,0,0,1,.14-.33.46.46,0,0,1,.34-.15H59a.44.44,0,0,1,.33.15.43.43,0,0,1,.15.33v12.56A.49.49,0,0,1,59.37,110.42Z"/><path class="cls-1" d="M64.55,110.42a.41.41,0,0,1-.33.16H62a.44.44,0,0,1-.34-.16.52.52,0,0,1-.14-.35V92.78A.48.48,0,0,1,62,92.3h2.23a.45.45,0,0,1,.33.14.48.48,0,0,1,.13.34v17.29A.51.51,0,0,1,64.55,110.42Z"/><path class="cls-1" d="M69.77,95.09a.47.47,0,0,1-.33.14H67.11a.52.52,0,0,1-.35-.14.44.44,0,0,1-.16-.34V92.64a.44.44,0,0,1,.16-.34.49.49,0,0,1,.35-.15h2.33a.44.44,0,0,1,.33.15.46.46,0,0,1,.15.34v2.11A.46.46,0,0,1,69.77,95.09Zm-.07,15.33a.44.44,0,0,1-.34.16H67.15a.42.42,0,0,1-.33-.16.49.49,0,0,1-.15-.35V97.51a.43.43,0,0,1,.15-.33.44.44,0,0,1,.33-.15h2.21a.46.46,0,0,1,.34.15.42.42,0,0,1,.14.33v12.56A.47.47,0,0,1,69.7,110.42Z"/><path class="cls-1" d="M78.8,110.6l-.82.12a7.34,7.34,0,0,1-.81,0,9.52,9.52,0,0,1-1.73-.14,2.38,2.38,0,0,1-1.18-.57,2.49,2.49,0,0,1-.67-1.16,7.43,7.43,0,0,1-.21-2V99.41l-2.26-.34a.84.84,0,0,1-.34-.17.4.4,0,0,1-.14-.31V97.51a.45.45,0,0,1,.14-.33.46.46,0,0,1,.34-.15h2.26v-2a.37.37,0,0,1,.14-.31.74.74,0,0,1,.33-.17l2.22-.38h.09q.39,0,.39.36V97h2.16a.52.52,0,0,1,.48.48v1.42a.46.46,0,0,1-.15.34.45.45,0,0,1-.33.14H76.55V107a7.09,7.09,0,0,0,0,.72,1,1,0,0,0,.12.41.39.39,0,0,0,.29.18,3.15,3.15,0,0,0,.5,0h1.28c.33,0,.5.12.5.36v1.51C79.26,110.41,79.11,110.55,78.8,110.6Z"/><path class="cls-1" d="M90,110.43a.46.46,0,0,1-.34.15h-2a.52.52,0,0,1-.48-.48v-.39a7.9,7.9,0,0,1-1.68.78,5.27,5.27,0,0,1-1.7.28,6.81,6.81,0,0,1-1.49-.17,3.23,3.23,0,0,1-2.3-1.85,4.53,4.53,0,0,1-.37-2v-.1A3.69,3.69,0,0,1,81,103.55a7.55,7.55,0,0,1,4.49-1H87v-1.07a1.9,1.9,0,0,0-.52-1.57,2.67,2.67,0,0,0-1.6-.39c-.77,0-1.51,0-2.23.06s-1.28.08-1.68.13h-.12a.61.61,0,0,1-.32-.07q-.12-.07-.12-.33V97.74c0-.27.15-.43.46-.5.48-.09,1.06-.18,1.74-.26a19.59,19.59,0,0,1,2.27-.12A6,6,0,0,1,88.81,98a4.26,4.26,0,0,1,1.36,3.46v8.65A.43.43,0,0,1,90,110.43Zm-3-5.81H85.47a6.06,6.06,0,0,0-1.34.13,2.09,2.09,0,0,0-.82.39,1.26,1.26,0,0,0-.41.63,3.44,3.44,0,0,0-.11.89v.1A1.42,1.42,0,0,0,83.2,108a2.31,2.31,0,0,0,1.33.3,4.68,4.68,0,0,0,1.29-.19,6.61,6.61,0,0,0,1.18-.48Z"/><path class="cls-1" d="M98.79,99.41a.49.49,0,0,1-.34.14,6.31,6.31,0,0,0-1.76.23,8.19,8.19,0,0,0-1.55.64v9.65a.49.49,0,0,1-.15.35.42.42,0,0,1-.33.16H92.45a.44.44,0,0,1-.34-.16.47.47,0,0,1-.14-.35V97.51a.42.42,0,0,1,.14-.33.46.46,0,0,1,.34-.15h2.09a.44.44,0,0,1,.33.15.43.43,0,0,1,.15.33V98a4.71,4.71,0,0,1,1.8-.93,6.92,6.92,0,0,1,1.63-.23.46.46,0,0,1,.34.15.47.47,0,0,1,.14.33v1.73A.49.49,0,0,1,98.79,99.41Z"/><path class="cls-1" d="M117.83,110.17a.38.38,0,0,1-.12.3.45.45,0,0,1-.31.11h-2.54a.38.38,0,0,1-.29-.12.66.66,0,0,1-.17-.29l-1.11-4.56h-5.52l-1.1,4.56a.77.77,0,0,1-.17.29.4.4,0,0,1-.29.12h-2.55a.47.47,0,0,1-.31-.11.38.38,0,0,1-.12-.3.09.09,0,0,1,0,0s0,0,0-.07L107.19,95a3.39,3.39,0,0,1,.63-1.32,2.83,2.83,0,0,1,.88-.73,2.88,2.88,0,0,1,1-.33,5.73,5.73,0,0,1,.87-.07,5.85,5.85,0,0,1,.88.07,2.88,2.88,0,0,1,1,.33,3.08,3.08,0,0,1,.88.73,3.25,3.25,0,0,1,.62,1.32l3.94,15.06s0,.06,0,.07A.09.09,0,0,1,117.83,110.17Zm-6.91-14.44a1.14,1.14,0,0,0-.12-.3.38.38,0,0,0-.27-.08.35.35,0,0,0-.26.08.71.71,0,0,0-.12.3l-1.73,7.14h4.23Z"/><path class="cls-1" d="M129.24,110.21a1.22,1.22,0,0,1-.38.18l-.49.09c-.23,0-.52.09-.86.13s-.71.08-1.12.11-.86,0-1.32,0a9,9,0,0,1-2.29-.31,5.62,5.62,0,0,1-2.19-1.14,6.28,6.28,0,0,1-1.64-2.25,8.66,8.66,0,0,1-.66-3.65V99.89A8.83,8.83,0,0,1,119,96.2,6.07,6.07,0,0,1,120.59,94a5.44,5.44,0,0,1,2.19-1.12,9.42,9.42,0,0,1,2.29-.3c.46,0,.9,0,1.32,0s.79.07,1.12.11l.86.12.49.1a1.22,1.22,0,0,1,.38.18.45.45,0,0,1,.15.38v1.61a.61.61,0,0,1-.11.36.45.45,0,0,1-.37.14h0l-.76-.06-.94-.06-1,0-1,0a4.5,4.5,0,0,0-1.39.21,2.52,2.52,0,0,0-1.1.75,3.81,3.81,0,0,0-.73,1.39,7.68,7.68,0,0,0-.26,2.14v3.53a7.5,7.5,0,0,0,.26,2.11,3.85,3.85,0,0,0,.73,1.4,2.52,2.52,0,0,0,1.1.75,4,4,0,0,0,1.39.23l1,0,1,0,.94-.06.76-.06h0a.45.45,0,0,1,.37.14.61.61,0,0,1,.11.36v1.61A.45.45,0,0,1,129.24,110.21Z"/><path class="cls-1" d="M144.33,110.43a.46.46,0,0,1-.34.15h-2.38a.44.44,0,0,1-.33-.15.43.43,0,0,1-.15-.33v-7.35h-6.82v7.35a.45.45,0,0,1-.14.33.46.46,0,0,1-.34.15h-2.38a.44.44,0,0,1-.33-.15.43.43,0,0,1-.15-.33V93.19a.43.43,0,0,1,.15-.33.51.51,0,0,1,.33-.13h2.38a.53.53,0,0,1,.34.13.45.45,0,0,1,.14.33v6.63h6.82V93.19a.43.43,0,0,1,.15-.33.51.51,0,0,1,.33-.13H144a.53.53,0,0,1,.34.13.45.45,0,0,1,.14.33V110.1A.45.45,0,0,1,144.33,110.43Z"/><path class="cls-1" d="M50.06,76.24a5,5,0,0,0,5,5h59.86a5,5,0,0,0,5-5V52.74a5,5,0,0,0-5-5H55.07a5,5,0,0,0-5,5V55.6H34.39a1.18,1.18,0,0,0,0,2.35H50.06v5.36H21a1.18,1.18,0,1,0,0,2.35H50.06V71H41.78a1.18,1.18,0,0,0,0,2.35h8.28Zm65.47,0a.6.6,0,0,1-.6.6h-5.28l5.88-5.93Zm0-18.26-5.89-5.84h5.29a.6.6,0,0,1,.6.6Zm-9.23-5.84,9.23,9.15v6.28l-9.19,9.27H63.66l-9.19-9.27V61.29l9.23-9.15ZM54.47,70.91l5.88,5.93H55.07a.6.6,0,0,1-.6-.6Zm0-12.93V52.74a.6.6,0,0,1,.6-.6h5.29Z"/><path class="cls-1" d="M85,73a8.51,8.51,0,1,0-8.51-8.5A8.51,8.51,0,0,0,85,73Zm0-14.66a6.16,6.16,0,1,1-6.16,6.16A6.16,6.16,0,0,1,85,58.33Z"/><path class="cls-1" d="M102,38.56a1.17,1.17,0,1,0,0,2.34h13.91a6.6,6.6,0,0,0,.6,1.82h-3.28a1.18,1.18,0,1,0,0,2.35h5.1l.07,0a6.82,6.82,0,1,0,0-10.64l-.07,0h-9.09a1.18,1.18,0,1,0,0,2.35h7.27a6.6,6.6,0,0,0-.6,1.82Zm25.08,1.17a4.47,4.47,0,1,1-4.47-4.47A4.48,4.48,0,0,1,127.08,39.73Z"/><path class="cls-1" d="M157,0H3.08A3.08,3.08,0,0,0,0,3.08V24a3.08,3.08,0,0,0,3.08,3.08H149.85a3.08,3.08,0,0,0,0-6.15H6.16V6.16H153.93V121.81H45.9a3.08,3.08,0,0,0,0,6.15H157a3.07,3.07,0,0,0,3.08-3.07V3.08A3.08,3.08,0,0,0,157,0Z"/><path class="cls-1" d="M21,122.21H5.75V31.09a2.68,2.68,0,0,0-5.35,0v93.8a2.68,2.68,0,0,0,2.68,2.67H21a2.68,2.68,0,1,0,0-5.35Z"/><path class="cls-1" d="M15.11,10.88a2.68,2.68,0,0,0,0,5.35h3.7a2.68,2.68,0,0,0,0-5.35Z"/><path class="cls-1" d="M29.39,10.88a2.68,2.68,0,1,0,0,5.35h3.69a2.68,2.68,0,0,0,0-5.35Z"/><path class="cls-1" d="M43.66,10.88a2.68,2.68,0,0,0,0,5.35h3.69a2.68,2.68,0,1,0,0-5.35Z"/></g></g></svg>