<svg xmlns="http://www.w3.org/2000/svg" viewBox="0 0 161.04 103.87"><defs><style>.cls-1{fill:#d7282f;}.cls-2{fill:#d51224;stroke:#d51224;stroke-linecap:round;stroke-linejoin:round;stroke-width:0.54px;}</style></defs><g id="Layer_2" data-name="Layer 2"><g id="Layer_1-2" data-name="Layer 1"><path class="cls-1" d="M35.9,84.81c0,.19-.1.28-.29.28H32.68a.32.32,0,0,1-.29-.14l-.19-.33-3.44-6.4h-.34l-1.1,0-1-.06v6.49a.48.48,0,0,1-.13.33.41.41,0,0,1-.32.14h-2.4A.45.45,0,0,1,23.1,85a.46.46,0,0,1-.15-.34V68.09a.62.62,0,0,1,.21-.52,1.15,1.15,0,0,1,.56-.2c.63-.1,1.35-.17,2.16-.23s1.67-.08,2.55-.08a12.43,12.43,0,0,1,2.64.27,6.7,6.7,0,0,1,2.2.9,4.59,4.59,0,0,1,1.51,1.67,5.35,5.35,0,0,1,.57,2.58v.22a4.86,4.86,0,0,1-3.27,4.9l3.77,7A.39.39,0,0,1,35.9,84.81ZM32,72.48a2.21,2.21,0,0,0-.9-2,4.87,4.87,0,0,0-2.69-.6l-.49,0-.61,0-.58,0-.45,0v5.4l.45,0,.62,0,.62,0,.44,0a4.86,4.86,0,0,0,2.73-.6A2.5,2.5,0,0,0,32,72.7Z"/><path class="cls-1" d="M47.67,79.42H39.82v.08A4.41,4.41,0,0,0,40,80.57a2.83,2.83,0,0,0,.45,1,2.33,2.33,0,0,0,.88.72,3.1,3.1,0,0,0,1.42.28c.88,0,1.71,0,2.48-.09s1.43-.1,1.94-.15h.07a.57.57,0,0,1,.31.08.32.32,0,0,1,.12.28v1.58a1,1,0,0,1-.08.44.59.59,0,0,1-.42.19L46,85.06c-.34,0-.68.1-1,.13s-.72.06-1.13.07-.89,0-1.43,0A7.54,7.54,0,0,1,40.55,85a5,5,0,0,1-1.88-1,5.32,5.32,0,0,1-1.43-1.85,6.7,6.7,0,0,1-.57-2.94V77.48a8.13,8.13,0,0,1,.38-2.55A5.38,5.38,0,0,1,38.17,73,4.77,4.77,0,0,1,40,71.8a6.73,6.73,0,0,1,2.45-.42,6.56,6.56,0,0,1,2.47.44,5,5,0,0,1,1.79,1.26A5.58,5.58,0,0,1,47.78,75a7.65,7.65,0,0,1,.37,2.46v1.35C48.15,79.23,48,79.42,47.67,79.42ZM45,77.07a3.15,3.15,0,0,0-.7-2.18,2.37,2.37,0,0,0-1.85-.77,2.46,2.46,0,0,0-1.86.75,3,3,0,0,0-.73,2.2v.1H45Z"/><path class="cls-1" d="M58.65,81.55A3.78,3.78,0,0,1,58.36,83a3.19,3.19,0,0,1-.88,1.19A4.25,4.25,0,0,1,56,85a6.74,6.74,0,0,1-2.06.29l-.88,0c-.34,0-.71,0-1.11-.08s-.81-.09-1.21-.15a6.88,6.88,0,0,1-1.1-.23.54.54,0,0,1-.46-.56V82.79a.4.4,0,0,1,.11-.27.38.38,0,0,1,.3-.12h.1c.29,0,.63.07,1,.1l1.16.08,1.08.06.77,0a3.53,3.53,0,0,0,.89-.09,1.1,1.1,0,0,0,.52-.24.71.71,0,0,0,.24-.37,1.63,1.63,0,0,0,.06-.45.85.85,0,0,0-.24-.6,3.5,3.5,0,0,0-.82-.62l-3.29-2a4.62,4.62,0,0,1-1.45-1.4A3.35,3.35,0,0,1,49.06,75q0-3.59,4.57-3.59c.48,0,.91,0,1.31,0s.75.06,1.09.1l1,.16.91.18a.51.51,0,0,1,.43.56v1.41c0,.3-.12.46-.38.46h-.1a5.23,5.23,0,0,0-.7-.1l-1-.08L55,74l-1.09,0a2.65,2.65,0,0,0-1.26.22.85.85,0,0,0-.4.78.66.66,0,0,0,.26.51,5.13,5.13,0,0,0,.7.48l3.15,1.91a6.12,6.12,0,0,1,1.21.91,4.31,4.31,0,0,1,.7.92,2.48,2.48,0,0,1,.32.91A5.5,5.5,0,0,1,58.65,81.55Z"/><path class="cls-1" d="M67.05,85.12l-.82.12a7.34,7.34,0,0,1-.81.05,8.63,8.63,0,0,1-1.73-.15,2.29,2.29,0,0,1-1.18-.56,2.48,2.48,0,0,1-.67-1.17,7.3,7.3,0,0,1-.21-1.94V73.92l-2.26-.33a.84.84,0,0,1-.34-.17.4.4,0,0,1-.14-.31V72a.49.49,0,0,1,.14-.34.45.45,0,0,1,.34-.14h2.26v-2a.37.37,0,0,1,.14-.31.8.8,0,0,1,.33-.17l2.22-.39h.09q.39,0,.39.36v2.48H67a.42.42,0,0,1,.33.14.46.46,0,0,1,.15.34v1.41a.46.46,0,0,1-.15.34.42.42,0,0,1-.33.14H64.8v7.55c0,.3,0,.54,0,.72a1,1,0,0,0,.12.41.46.46,0,0,0,.29.18,3.34,3.34,0,0,0,.5,0H67c.33,0,.5.12.5.36v1.52C67.51,84.93,67.36,85.07,67.05,85.12Z"/><path class="cls-1" d="M78.27,85a.45.45,0,0,1-.34.14h-2a.42.42,0,0,1-.33-.14.46.46,0,0,1-.15-.34v-.38a7.9,7.9,0,0,1-1.68.78,5.55,5.55,0,0,1-1.7.28,6.81,6.81,0,0,1-1.49-.17,3.31,3.31,0,0,1-1.34-.63,3.39,3.39,0,0,1-1-1.22,4.58,4.58,0,0,1-.37-2v-.09a3.66,3.66,0,0,1,1.37-3.11,7.47,7.47,0,0,1,4.49-1h1.51V76a1.92,1.92,0,0,0-.51-1.58,2.75,2.75,0,0,0-1.6-.38c-.77,0-1.51,0-2.23.06s-1.28.08-1.68.13H69.1a.61.61,0,0,1-.32-.07c-.08-.05-.12-.16-.12-.34V72.26a.48.48,0,0,1,.46-.5c.48-.1,1.06-.18,1.74-.26a19.59,19.59,0,0,1,2.27-.12,6,6,0,0,1,3.93,1.13A4.24,4.24,0,0,1,78.41,76v8.64A.45.45,0,0,1,78.27,85Zm-3-5.81H73.72a5.51,5.51,0,0,0-1.34.13,2.16,2.16,0,0,0-.82.38,1.25,1.25,0,0,0-.41.64,3.38,3.38,0,0,0-.11.89v.09a1.41,1.41,0,0,0,.41,1.19,2.31,2.31,0,0,0,1.33.3,4.38,4.38,0,0,0,1.29-.19,6.22,6.22,0,0,0,1.17-.48Z"/><path class="cls-1" d="M90,83.69a5.52,5.52,0,0,1-4.33,1.6,18.72,18.72,0,0,1-2.42-.17,21,21,0,0,1-2.41-.46,1.18,1.18,0,0,1-.52-.25.53.53,0,0,1-.12-.4V67.3a.48.48,0,0,1,.48-.48h2.21a.43.43,0,0,1,.33.14.46.46,0,0,1,.15.34v4.25a11.9,11.9,0,0,1,1.27-.13c.4,0,.74,0,1,0A5.49,5.49,0,0,1,90,73a6.45,6.45,0,0,1,1.41,4.43v1.85A6.47,6.47,0,0,1,90,83.69Zm-1.76-6.28a7.28,7.28,0,0,0-.11-1.36A2.9,2.9,0,0,0,87.76,75a1.93,1.93,0,0,0-.8-.72A2.78,2.78,0,0,0,85.69,74c-.29,0-.66,0-1.12,0s-.85.07-1.18.12V82.5a7,7,0,0,0,1,.12c.44,0,.88,0,1.31,0A2.78,2.78,0,0,0,87,82.41a2.07,2.07,0,0,0,.8-.72,2.88,2.88,0,0,0,.39-1.08,7.13,7.13,0,0,0,.11-1.36Z"/><path class="cls-1" d="M95.91,84.94a.41.41,0,0,1-.32.15H93.35a.44.44,0,0,1-.33-.15.5.5,0,0,1-.15-.35V67.3A.46.46,0,0,1,93,67a.43.43,0,0,1,.33-.14h2.24a.4.4,0,0,1,.32.14.48.48,0,0,1,.13.34V84.59A.53.53,0,0,1,95.91,84.94Z"/><path class="cls-1" d="M108.56,79.42H100.7v.08a4.43,4.43,0,0,0,.14,1.07,2.66,2.66,0,0,0,.45,1,2.33,2.33,0,0,0,.88.72,3.1,3.1,0,0,0,1.42.28c.88,0,1.71,0,2.48-.09s1.42-.1,1.94-.15h.07a.57.57,0,0,1,.31.08.32.32,0,0,1,.12.28v1.58a1,1,0,0,1-.08.44.59.59,0,0,1-.42.19l-1.08.18c-.34,0-.68.1-1,.13s-.73.06-1.13.07-.89,0-1.43,0a7.48,7.48,0,0,1-1.91-.28,5,5,0,0,1-1.88-1,5.32,5.32,0,0,1-1.43-1.85,6.7,6.7,0,0,1-.57-2.94V77.48a8.13,8.13,0,0,1,.38-2.55A5.38,5.38,0,0,1,99.06,73a4.77,4.77,0,0,1,1.81-1.21,6.73,6.73,0,0,1,2.45-.42,6.47,6.47,0,0,1,2.46.44,4.84,4.84,0,0,1,1.79,1.26,5.6,5.6,0,0,1,1.1,1.94,7.94,7.94,0,0,1,.37,2.46v1.35C109,79.23,108.88,79.42,108.56,79.42Zm-2.69-2.35a3.11,3.11,0,0,0-.71-2.18,2.34,2.34,0,0,0-1.84-.77,2.46,2.46,0,0,0-1.86.75,3,3,0,0,0-.73,2.2v.1h5.14Z"/><path class="cls-1" d="M118.94,84.77a.68.68,0,0,1-.41.2,7.73,7.73,0,0,1-1.2.22,17,17,0,0,1-1.9.1,6.39,6.39,0,0,1-2.18-.36,4.57,4.57,0,0,1-1.72-1.1A5.13,5.13,0,0,1,110.37,82a7.12,7.12,0,0,1-.42-2.56V77.22a7.12,7.12,0,0,1,.42-2.56,5.17,5.17,0,0,1,1.16-1.83,4.55,4.55,0,0,1,1.72-1.09,6.39,6.39,0,0,1,2.18-.36,17.29,17.29,0,0,1,1.9.09,9.16,9.16,0,0,1,1.2.22.75.75,0,0,1,.41.21.73.73,0,0,1,.09.42v1.56a.29.29,0,0,1-.12.27.5.5,0,0,1-.31.09h-.07l-.68-.09c-.2,0-.42,0-.64,0l-.77,0h-1a2.64,2.64,0,0,0-.84.14,1.77,1.77,0,0,0-.73.5,2.43,2.43,0,0,0-.53,1,4.79,4.79,0,0,0-.21,1.55v2.23a4.88,4.88,0,0,0,.21,1.55,2.43,2.43,0,0,0,.53,1,1.75,1.75,0,0,0,.73.49,2.4,2.4,0,0,0,.84.15l1,0,.77,0a6.39,6.39,0,0,0,.64,0l.68-.08h.07a.57.57,0,0,1,.31.08.32.32,0,0,1,.12.28v1.56A.77.77,0,0,1,118.94,84.77Z"/><path class="cls-1" d="M130.94,79.42h-7.85v.08a4.41,4.41,0,0,0,.13,1.07,2.68,2.68,0,0,0,.46,1,2.29,2.29,0,0,0,.87.72,3.12,3.12,0,0,0,1.42.28q1.32,0,2.49-.09c.77,0,1.42-.1,1.93-.15h.07a.61.61,0,0,1,.32.08.32.32,0,0,1,.12.28v1.58a.85.85,0,0,1-.09.44.57.57,0,0,1-.42.19l-1.08.18c-.34,0-.68.1-1,.13s-.72.06-1.13.07-.88,0-1.43,0a7.54,7.54,0,0,1-1.91-.28,5,5,0,0,1-1.87-1,5.34,5.34,0,0,1-1.44-1.85,6.7,6.7,0,0,1-.57-2.94V77.48a7.85,7.85,0,0,1,.39-2.55A5.21,5.21,0,0,1,121.44,73a4.81,4.81,0,0,1,1.82-1.21,6.69,6.69,0,0,1,2.45-.42,6.47,6.47,0,0,1,2.46.44A4.92,4.92,0,0,1,130,73.08,5.58,5.58,0,0,1,131.05,75a7.65,7.65,0,0,1,.37,2.46v1.35C131.42,79.23,131.26,79.42,130.94,79.42Zm-2.69-2.35a3.11,3.11,0,0,0-.7-2.18,2.35,2.35,0,0,0-1.84-.77,2.5,2.5,0,0,0-1.87.75,3.09,3.09,0,0,0-.73,2.2v.1h5.14Z"/><path class="cls-1" d="M139.64,73.92a.46.46,0,0,1-.34.15,6.36,6.36,0,0,0-1.76.23,8.14,8.14,0,0,0-1.55.63v9.66a.5.5,0,0,1-.15.35.44.44,0,0,1-.33.15H133.3a.46.46,0,0,1-.34-.15.54.54,0,0,1-.14-.35V72a.49.49,0,0,1,.14-.34.45.45,0,0,1,.34-.14h2.09a.43.43,0,0,1,.33.14.46.46,0,0,1,.15.34v.5a4.82,4.82,0,0,1,1.8-.92,6.92,6.92,0,0,1,1.63-.23.48.48,0,0,1,.48.48v1.73A.45.45,0,0,1,139.64,73.92Z"/><path class="cls-2" d="M15.58,35.38l8.33,2.8-5.23,7.07a3,3,0,0,0,.64,4.25,3.12,3.12,0,0,0,4.24-.64l5.23-7.07,5.13,7.14a3,3,0,0,0,2.47,1.26,3,3,0,0,0,1.76-.57,3,3,0,0,0,.7-4.23l-5.13-7.14,8.38-2.69a3,3,0,0,0-1.87-5.78l-8.37,2.69V23.68a3,3,0,0,0-6.07,0v8.73l-8.28-2.79a3,3,0,0,0-1.93,5.76Z"/><path class="cls-2" d="M50.85,35.38l8.34,2.8L54,45.25a3,3,0,0,0-.56,2.26,3,3,0,0,0,1.2,2,3.12,3.12,0,0,0,4.24-.64l5.23-7.07,5.13,7.14a3,3,0,0,0,4.92-3.54L69,38.25l8.37-2.7a3,3,0,0,0,1.77-1.5,3,3,0,0,0,.19-2.31A3,3,0,0,0,77.82,30a3,3,0,0,0-2.31-.19l-8.37,2.69V23.68a3,3,0,0,0-6.07,0v8.73l-8.28-2.79a3,3,0,0,0-1.94,5.76Z"/><path class="cls-2" d="M86.13,35.38l8.33,2.8-5.22,7.07a3,3,0,0,0-.57,2.26,3,3,0,0,0,1.2,2,3.12,3.12,0,0,0,4.24-.64l5.23-7.07,5.13,7.14a3,3,0,1,0,4.93-3.54l-5.13-7.14,8.37-2.7a3,3,0,0,0,2-3.81,3,3,0,0,0-3.82-2l-8.37,2.69V23.68a3,3,0,0,0-6.07,0v8.73l-8.27-2.79a3,3,0,0,0-1.94,5.76Z"/><path class="cls-2" d="M151.54.27H9.51A9.24,9.24,0,0,0,.27,9.51V94.36a9.24,9.24,0,0,0,9.24,9.24h7.84a2.34,2.34,0,0,0,2.34-2.34h0A3.74,3.74,0,0,0,16,97.53H9.51a3.17,3.17,0,0,1-3.17-3.17V9.51A3.17,3.17,0,0,1,9.51,6.34h142a3.16,3.16,0,0,1,3.16,3.17V94.36a3.16,3.16,0,0,1-3.16,3.17H47.28a3.72,3.72,0,0,0-3.73,3.72h0a2.35,2.35,0,0,0,2.35,2.35H151.55a9.22,9.22,0,0,0,9.22-9.23V9.51A9.24,9.24,0,0,0,151.54.27Z"/><path class="cls-2" d="M130.11,52.82a3,3,0,0,0,0,6.07h10.15a3,3,0,0,0,0-6.07h-2V18h2a3,3,0,0,0,0-6.07H130.11a3,3,0,0,0,0,6.07h2v34.8Z"/></g></g></svg>