<svg xmlns="http://www.w3.org/2000/svg" viewBox="0 0 183.73 183.73"><defs><style>.cls-1{fill:#d7282f;}</style></defs><g id="Layer_2" data-name="Layer 2"><g id="Layer_1-2" data-name="Layer 1"><path class="cls-1" d="M45,144a7.74,7.74,0,0,1-5.59,1.89l-1.35,0c-.48,0-.93,0-1.37-.07l-1.2-.09-.81-.1a.64.64,0,0,1-.62-.74V128.66a.63.63,0,0,1,.62-.74,6.76,6.76,0,0,1,.81-.1l1.2-.1,1.37-.07,1.35,0A7.78,7.78,0,0,1,45,129.51a7.27,7.27,0,0,1,2,5.47v3.53A7.23,7.23,0,0,1,45,144Zm-1.38-9a6.44,6.44,0,0,0-.33-2.23,3.46,3.46,0,0,0-.88-1.39,3.16,3.16,0,0,0-1.33-.73,6.77,6.77,0,0,0-1.67-.2l-1.15,0-.86,0V143l.86.05c.32,0,.7,0,1.15,0a6.77,6.77,0,0,0,1.67-.2,3.25,3.25,0,0,0,1.33-.72,3.5,3.5,0,0,0,.88-1.4,6.44,6.44,0,0,0,.33-2.23Z"/><path class="cls-1" d="M59.08,140H51.22v.07a4.43,4.43,0,0,0,.14,1.07,2.66,2.66,0,0,0,.45,1,2.33,2.33,0,0,0,.88.72,3.1,3.1,0,0,0,1.42.28c.88,0,1.71,0,2.48-.08l1.94-.16h.07a.57.57,0,0,1,.31.08.32.32,0,0,1,.12.28v1.59a1,1,0,0,1-.08.43.59.59,0,0,1-.42.19l-1.08.18c-.34.06-.68.1-1,.13s-.72.06-1.12.07-.89,0-1.43,0a7.06,7.06,0,0,1-1.91-.28,5,5,0,0,1-1.88-1,5.23,5.23,0,0,1-1.43-1.85,6.64,6.64,0,0,1-.57-2.94v-1.78a8,8,0,0,1,.38-2.54,5.33,5.33,0,0,1,1.12-1.93,4.89,4.89,0,0,1,1.81-1.21,6.73,6.73,0,0,1,2.45-.42,6.28,6.28,0,0,1,2.46.45,4.62,4.62,0,0,1,1.79,1.26,5.56,5.56,0,0,1,1.1,1.93,8,8,0,0,1,.37,2.46v1.35Q59.56,140,59.08,140Zm-2.69-2.36a3.11,3.11,0,0,0-.71-2.18,2.37,2.37,0,0,0-1.84-.77,2.44,2.44,0,0,0-1.86.76,3,3,0,0,0-.73,2.19v.1h5.14Z"/><path class="cls-1" d="M70.06,142.12a3.74,3.74,0,0,1-.29,1.47,3.22,3.22,0,0,1-.88,1.19,4.09,4.09,0,0,1-1.48.79,6.74,6.74,0,0,1-2.06.29l-.88,0c-.34,0-.72,0-1.12-.08s-.8-.09-1.2-.15a6.66,6.66,0,0,1-1.1-.23.53.53,0,0,1-.46-.55v-1.46a.4.4,0,0,1,.11-.26A.38.38,0,0,1,61,143h.1l1,.09,1.16.09,1.08.06.77,0a4.16,4.16,0,0,0,.89-.08,1.4,1.4,0,0,0,.52-.24.79.79,0,0,0,.24-.37,1.76,1.76,0,0,0,.06-.46.88.88,0,0,0-.24-.6,4.48,4.48,0,0,0-.82-.62l-3.29-2a4.51,4.51,0,0,1-1.45-1.4,3.32,3.32,0,0,1-.57-1.9q0-3.6,4.57-3.6c.48,0,.91,0,1.3,0s.76.06,1.1.11l1,.15.91.19a.5.5,0,0,1,.43.55v1.41c0,.31-.13.46-.38.46h-.1c-.16,0-.39-.07-.71-.1l-1-.08-1.14-.07c-.39,0-.75,0-1.09,0a2.63,2.63,0,0,0-1.26.23.81.81,0,0,0-.4.78.66.66,0,0,0,.25.5,6.1,6.1,0,0,0,.71.48l3.15,1.92a5.44,5.44,0,0,1,1.21.91,4.27,4.27,0,0,1,.7.91,2.76,2.76,0,0,1,.32.91A5.59,5.59,0,0,1,70.06,142.12Z"/><path class="cls-1" d="M81.18,144.26a5.49,5.49,0,0,1-4.33,1.6,18.72,18.72,0,0,1-2.42-.17,19.07,19.07,0,0,1-2.41-.46,1.18,1.18,0,0,1-.52-.25.57.57,0,0,1-.12-.39V127.87a.45.45,0,0,1,.14-.34.49.49,0,0,1,.34-.14h2.21a.47.47,0,0,1,.33.14.46.46,0,0,1,.15.34v4.25c.44-.06.87-.11,1.27-.13s.74,0,1,0a5.49,5.49,0,0,1,4.33,1.6A6.45,6.45,0,0,1,82.59,138v1.85A6.45,6.45,0,0,1,81.18,144.26ZM79.42,138a7.31,7.31,0,0,0-.11-1.37,2.9,2.9,0,0,0-.39-1.07,2.07,2.07,0,0,0-.8-.72,2.78,2.78,0,0,0-1.27-.26c-.29,0-.66,0-1.11.05s-.86.07-1.19.12v8.33a7,7,0,0,0,1,.12c.44,0,.88.05,1.31.05a2.78,2.78,0,0,0,1.27-.26,2.07,2.07,0,0,0,.8-.72,2.9,2.9,0,0,0,.39-1.07,7.28,7.28,0,0,0,.11-1.36Z"/><path class="cls-1" d="M87.07,145.51a.39.39,0,0,1-.32.16H84.51a.42.42,0,0,1-.33-.16.49.49,0,0,1-.15-.35V127.87a.46.46,0,0,1,.15-.34.47.47,0,0,1,.33-.14h2.24a.43.43,0,0,1,.32.14.48.48,0,0,1,.13.34v17.29A.51.51,0,0,1,87.07,145.51Z"/><path class="cls-1" d="M99.83,142.27a5.33,5.33,0,0,1-1.1,1.88,4.93,4.93,0,0,1-1.79,1.25,6.94,6.94,0,0,1-5,0,5,5,0,0,1-1.79-1.25,5.31,5.31,0,0,1-1.09-1.88,7.35,7.35,0,0,1-.37-2.39v-1.95a7.35,7.35,0,0,1,.37-2.39,5.31,5.31,0,0,1,1.09-1.88A5,5,0,0,1,92,132.41a6.94,6.94,0,0,1,5,0,4.93,4.93,0,0,1,1.79,1.25,5.33,5.33,0,0,1,1.1,1.88,7.63,7.63,0,0,1,.37,2.39v1.95A7.63,7.63,0,0,1,99.83,142.27ZM97,137.93a3.89,3.89,0,0,0-.65-2.36,2.53,2.53,0,0,0-3.84,0,3.82,3.82,0,0,0-.65,2.36v1.95a3.82,3.82,0,0,0,.65,2.36,2.53,2.53,0,0,0,3.84,0,3.89,3.89,0,0,0,.65-2.36Z"/><path class="cls-1" d="M112.18,150.28a.47.47,0,0,1-.33.14h-2.21a.49.49,0,0,1-.34-.14.45.45,0,0,1-.14-.34v-4.25c-.45.06-.88.11-1.28.13s-.74,0-1,0a5.45,5.45,0,0,1-4.32-1.6,6.41,6.41,0,0,1-1.42-4.43V138a6.41,6.41,0,0,1,1.42-4.43,5.45,5.45,0,0,1,4.32-1.6,19,19,0,0,1,2.43.17,18.57,18.57,0,0,1,2.4.46,1.23,1.23,0,0,1,.53.25.58.58,0,0,1,.12.4v16.71A.46.46,0,0,1,112.18,150.28Zm-3-15.54a7.37,7.37,0,0,0-1-.12c-.44,0-.88-.05-1.31-.05a2.78,2.78,0,0,0-1.27.26,2,2,0,0,0-.79.72,2.74,2.74,0,0,0-.4,1.07,8.27,8.27,0,0,0-.11,1.37v1.84a8.23,8.23,0,0,0,.11,1.36,2.74,2.74,0,0,0,.4,1.07,2,2,0,0,0,.79.72,2.78,2.78,0,0,0,1.27.26c.29,0,.66,0,1.12-.05s.85-.07,1.19-.12Z"/><path class="cls-1" d="M125.08,145.52a.45.45,0,0,1-.34.15h-2.2a.45.45,0,0,1-.34-.15.43.43,0,0,1-.15-.33v-.54a7.79,7.79,0,0,1-1.77.9,6.27,6.27,0,0,1-2,.28,5.57,5.57,0,0,1-1.67-.24,3.12,3.12,0,0,1-1.28-.76,3.68,3.68,0,0,1-.94-1.77,11.59,11.59,0,0,1-.26-2.6v-7.84a.51.51,0,0,1,.14-.34.44.44,0,0,1,.34-.16h2.21a.41.41,0,0,1,.33.16.49.49,0,0,1,.15.35v7.84a7.16,7.16,0,0,0,.11,1.46,1.51,1.51,0,0,0,.44.85,1.77,1.77,0,0,0,.6.33,3.07,3.07,0,0,0,.89.11,2.64,2.64,0,0,0,.71-.1,4.79,4.79,0,0,0,.73-.24l.7-.31c.22-.11.41-.22.57-.32v-9.62a.49.49,0,0,1,.15-.35.43.43,0,0,1,.34-.16h2.2a.43.43,0,0,1,.34.16.48.48,0,0,1,.15.34v12.57A.43.43,0,0,1,125.08,145.52Z"/><path class="cls-1" d="M137.62,140h-7.85v.07a4.41,4.41,0,0,0,.13,1.07,2.83,2.83,0,0,0,.45,1,2.33,2.33,0,0,0,.88.72,3.1,3.1,0,0,0,1.42.28c.88,0,1.71,0,2.48-.08l1.94-.16h.07a.57.57,0,0,1,.31.08.32.32,0,0,1,.12.28v1.59a1,1,0,0,1-.08.43.59.59,0,0,1-.42.19l-1.08.18c-.34.06-.68.1-1,.13s-.73.06-1.13.07-.89,0-1.43,0a7.06,7.06,0,0,1-1.91-.28,5,5,0,0,1-1.88-1,5.23,5.23,0,0,1-1.43-1.85,6.64,6.64,0,0,1-.57-2.94v-1.78a8,8,0,0,1,.38-2.54,5.33,5.33,0,0,1,1.12-1.93,4.89,4.89,0,0,1,1.81-1.21,6.73,6.73,0,0,1,2.45-.42,6.36,6.36,0,0,1,2.47.45,4.66,4.66,0,0,1,1.78,1.26,5.4,5.4,0,0,1,1.1,1.93,7.74,7.74,0,0,1,.37,2.46v1.35Q138.1,140,137.62,140Zm-2.69-2.36a3.15,3.15,0,0,0-.7-2.18,2.41,2.41,0,0,0-1.85-.77,2.44,2.44,0,0,0-1.86.76,3,3,0,0,0-.73,2.19v.1h5.14Z"/><path class="cls-1" d="M150.19,142.27a5.31,5.31,0,0,1-1.09,1.88,5,5,0,0,1-1.79,1.25,6.94,6.94,0,0,1-5,0,5,5,0,0,1-1.79-1.25,5.17,5.17,0,0,1-1.09-1.88,7.35,7.35,0,0,1-.38-2.39v-1.95a7.35,7.35,0,0,1,.38-2.39,5.17,5.17,0,0,1,1.09-1.88,5,5,0,0,1,1.79-1.25,6.94,6.94,0,0,1,5,0,5,5,0,0,1,1.79,1.25,5.31,5.31,0,0,1,1.09,1.88,7.35,7.35,0,0,1,.37,2.39v1.95A7.35,7.35,0,0,1,150.19,142.27Zm-2.8-4.34a3.89,3.89,0,0,0-.64-2.36,2.55,2.55,0,0,0-3.85,0,3.89,3.89,0,0,0-.65,2.36v1.95a3.89,3.89,0,0,0,.65,2.36,2.55,2.55,0,0,0,3.85,0,3.89,3.89,0,0,0,.64-2.36Z"/><path class="cls-1" d="M91.87,0a91.88,91.88,0,0,0-79.5,137.93,3.57,3.57,0,0,0,6.18-3.59A84.75,84.75,0,1,1,40.24,159a3.57,3.57,0,0,0-4.35,5.67,91,91,0,0,0,56,19A91.87,91.87,0,0,0,91.87,0Z"/><path class="cls-1" d="M49.23,87.52A14.45,14.45,0,0,0,63.51,104H88.2a4,4,0,0,0,0-8H63.51a6.28,6.28,0,0,1-4.8-2.19,6.4,6.4,0,0,1-1.52-5.12C59.38,72.8,66.51,62.89,77.81,60a4,4,0,0,0,.78-7.48,15.11,15.11,0,1,1,21.82-14,15.19,15.19,0,0,1-8.39,14A4,4,0,0,0,92.81,60a23.8,23.8,0,0,1,12.79,8.25,4,4,0,1,0,6.25-5.06A32,32,0,0,0,102,55,23.13,23.13,0,0,0,86.4,15.84,23.15,23.15,0,0,0,68.6,55C58.18,60.57,51.4,71.85,49.23,87.52Z"/><path class="cls-1" d="M115.17,78.67a8.88,8.88,0,0,1,7.6,4.26,4,4,0,1,0,6.85-4.19,16.95,16.95,0,0,0-31.4,8.85v1.94a6,6,0,0,0-2.53,4.87v15.82a9.54,9.54,0,0,0,9.53,9.52h19.9a9.53,9.53,0,0,0,9.52-9.52V94.4a6,6,0,0,0-6-6H106.26v-.81A8.92,8.92,0,0,1,115.17,78.67Zm11.44,31.55a1.49,1.49,0,0,1-1.49,1.48h-19.9a1.49,1.49,0,0,1-1.49-1.48V96.44h22.88Z"/><polygon class="cls-1" points="117.06 115.11 113.27 115.11 110.47 124.27 119.87 124.27 117.06 115.11"/></g></g></svg>