<?xml version="1.0" encoding="utf-8"?>
<!-- Generator: Adobe Illustrator 21.0.2, SVG Export Plug-In . SVG Version: 6.00 Build 0)  -->
<svg version="1.1" id="Layer_1" xmlns="http://www.w3.org/2000/svg" xmlns:xlink="http://www.w3.org/1999/xlink" x="0px" y="0px"
	 width="532.8px" height="131.2px" viewBox="0 0 532.8 131.2" style="enable-background:new 0 0 532.8 131.2;" xml:space="preserve"
	>
<style type="text/css">
	.st0{fill:#FFFFFF;}
	.st1{clip-path:url(#SVGID_2_);}
	.st2{clip-path:url(#SVGID_4_);fill:#FFFFFF;}
	.st3{clip-path:url(#SVGID_6_);}
	.st4{clip-path:url(#SVGID_8_);fill:#FFFFFF;}
</style>
<g>
	<path class="st0" d="M226.6,16.8c0,5.4-2.9,10.7-8.7,12.9c5.4,1.8,9.6,6,9.6,14c0,14.2-11.3,16.8-23.8,16.8
		c-7.8,0-14.7-0.6-20.6-1.6V2.1c4.6-0.9,12.3-1.8,19.6-1.8C213.9,0.3,226.6,2.5,226.6,16.8 M196.7,34.9V49c2,0.3,4.2,0.4,6.6,0.4
		c6.1,0,10.4-1,10.4-7.1c0-6.5-4.6-7.5-10.6-7.5H196.7z M203.1,24.7c5.8,0,10.1-1,10.1-6.9c0-5.9-4.1-6.6-10.5-6.6
		c-1.9,0-4.1,0.2-5.9,0.4v13H203.1z"/>
</g>
<g>
	<path class="st0" d="M235.1,45.8c0-8.1,3.6-13.1,12.9-14.6c4.5-0.7,8.5-0.9,12.8-1.1c0-4.1-2.1-5.6-6.9-5.6
		c-5.5,0-11.7,0.6-16.2,1.2l-1-9.8c4.6-0.8,11.3-1.8,18-1.8c10.2,0,18.8,2.9,18.8,14.8v18.2c0,3.2-0.1,5.8-0.4,8.9
		c-5.4,3.2-12.3,4.4-20.1,4.4C240.2,60.5,235.1,55.7,235.1,45.8 M260.8,38.7c-2.8,0.2-5.9,0.3-8.4,0.9c-3.2,0.8-4.5,1.9-4.5,6.1
		c0,3.8,2.3,4.9,6.3,4.9c2,0,4.4-0.1,6.4-0.9c0.2-1.8,0.3-4,0.3-6.1V38.7z"/>
</g>
<g>
	<path class="st0" d="M295.6,59.9h-12.9V27.5c0-3.2,0.1-5.8,0.4-8.9c5.4-3.1,12.6-4.4,20-4.4c16.7,0,18.6,7.1,18.6,17.2v28.5h-12.9
		V32.4c0-5.5-1-7.7-7.3-7.7c-2,0-4.2,0.3-5.6,0.9c-0.2,1.8-0.3,4-0.3,6.1V59.9z"/>
</g>
<g>
	<path class="st0" d="M362.3,58.7c-4,1.1-9.2,1.9-15.5,1.9c-15.2,0-17.5-11.7-17.5-23.6c0-14.8,3.5-22.8,20.2-22.8
		c5.5,0,9.5,0.8,12.7,1.9l-1,9.5c-3-0.6-5.7-1.2-8.6-1.2c-9.1,0-10.3,3-10.3,12.6c0,9.1,0.5,13.1,10.4,13.1c2.9,0,5.5-0.5,8.4-1.2
		L362.3,58.7z"/>
</g>
<g>
	<path class="st0" d="M368,37.4c0-16.8,5.4-23.2,20.4-23.2c15,0,20.4,6.5,20.4,23.2c0,16.7-5.4,23.2-20.4,23.2
		C373.4,60.5,368,54.2,368,37.4 M395.7,37.4c0-9.9-1.4-12.6-7.4-12.6c-6,0-7.4,2.6-7.4,12.6c0,10.1,1.4,12.6,7.4,12.6
		C394.3,50,395.7,47.3,395.7,37.4"/>
</g>
<g>
	<path class="st0" d="M177.9,130.5l17.3-50.4c2.3-6.8,5.6-9.6,10.6-9.6c4.8,0,8.4,3.1,10.6,9.6l17,50.4h-14.7l-4-13.6h-18.5
		l-3.9,13.6H177.9z M211.5,106.2l-6.2-20.9l-6,20.9H211.5z"/>
</g>
<g>
	<path class="st0" d="M281.7,70.7v45.7c0,3.1,1.3,4.7,4.7,4.7c1.3,0,2.5-0.1,3.9-0.5l1.3,9.6c-2.7,0.5-6,0.9-8.7,0.9
		c-9.9,0-14.1-4.4-14.1-13.2V70.7H281.7z"/>
</g>
<g>
	<path class="st0" d="M294.8,116.4c0-8.2,3.6-13.2,12.9-14.7c4.5-0.7,8.6-0.9,12.9-1.1c0-4.1-2.1-5.6-6.9-5.6
		c-5.5,0-11.8,0.6-16.3,1.2l-1.1-9.8c4.6-0.8,11.4-1.8,18.1-1.8c10.3,0,18.9,2.9,18.9,14.9v18.3c0,3.2-0.1,5.9-0.4,8.9
		c-5.5,3.3-12.4,4.5-20.3,4.5C299.9,131.2,294.8,126.3,294.8,116.4 M320.6,109.1c-2.8,0.2-5.9,0.3-8.5,0.9c-3.2,0.8-4.5,1.9-4.5,6.1
		c0,3.8,2.3,4.9,6.3,4.9c2.1,0,4.4-0.1,6.4-0.9c0.2-1.8,0.3-4.1,0.3-6.1V109.1z M319.5,79.7h-9.9l6.7-11.4h12.9L319.5,79.7z"/>
</g>
<g>
	<path class="st0" d="M356.2,130.5h-13V97.9c0-3.2,0.1-5.9,0.4-8.9c5.5-3.2,12.7-4.5,20.1-4.5c16.8,0,18.7,7.2,18.7,17.3v28.7h-13
		v-27.7c0-5.5-1-7.7-7.3-7.8c-2,0-4.2,0.3-5.6,0.9c-0.2,1.8-0.3,4.1-0.3,6.1V130.5z"/>
</g>
<g>
	<path class="st0" d="M422.6,74.3c0-4.7,1.7-6.5,7-6.5c5.3,0,7,1.8,7,6.5c0,4.7-1.7,6.5-7,6.5C424.3,80.8,422.6,79,422.6,74.3
		 M423.1,84.5h13.2v46h-13.2V84.5z"/>
</g>
<g>
	<path class="st0" d="M473,70.7H486v47.1c0,3.2-0.1,5.9-0.4,8.9c-5.1,3.1-12.4,4.5-18.7,4.5c-15.4,0-21.8-5.4-21.8-23.3
		c0-17.7,6.4-23.3,20.5-23.3c2.3,0,5,0.3,7.3,0.7V70.7z M468,95c-9.5,0-9.8,5.6-9.8,12.8c0,6.4,0.3,13,8.7,13c2.1,0,4.4-0.3,5.8-0.9
		c0.2-1.8,0.3-4.1,0.3-6.1V95.7C471.5,95.3,469.6,95,468,95"/>
</g>
<g>
	<path class="st0" d="M494.2,116.4c0-8.2,3.6-13.2,12.9-14.7c4.5-0.7,8.6-0.9,12.9-1.1c0-4.1-2.1-5.6-7-5.6
		c-5.5,0-11.8,0.6-16.3,1.2l-1-9.8c4.6-0.8,11.4-1.8,18.1-1.8c10.3,0,18.9,2.9,18.9,14.9v18.3c0,3.2-0.1,5.9-0.4,8.9
		c-5.5,3.3-12.4,4.5-20.3,4.5C499.4,131.2,494.2,126.3,494.2,116.4 M520.1,109.1c-2.8,0.2-5.9,0.3-8.5,0.9c-3.2,0.8-4.6,1.9-4.6,6.1
		c0,3.8,2.3,4.9,6.3,4.9c2.1,0,4.4-0.1,6.4-0.9c0.2-1.8,0.3-4.1,0.3-6.1V109.1z"/>
</g>
<g>
	<path class="st0" d="M404.6,70.7v13.9h11.3v10.8h-11.3v21.1c0,3.1,1.3,4.7,4.7,4.7c1.3,0,2.7-0.1,4.2-0.2l1,9.3
		c-2.7,0.5-6,0.9-8.7,0.9c-9.9,0-14.1-4.4-14.1-13.2V70.7H404.6z"/>
</g>
<g>
	<path class="st0" d="M250.4,70.7v13.9h11.3v10.8h-11.3v21.1c0,3.1,1.3,4.7,4.7,4.7c1.4,0,2.7-0.1,4.2-0.2l1,9.3
		c-2.7,0.5-6,0.9-8.7,0.9c-9.9,0-14.1-4.4-14.1-13.2V70.7H250.4z"/>
</g>
<g>
	<defs>
		<path id="SVGID_1_" d="M4.3,0C1.9,0,0,1.9,0,4.3v70.5c0,34.1,21.9,56.4,56.1,56.4h29c2.4,0,4.3-1.9,4.3-4.3V92.2
			c0-2.4-1.9-4.3-4.3-4.3H66.6c-2.4,0-13.5-0.4-13.5-13.5V4.3c0-2.4-1.9-4.3-4.3-4.3H4.3z"/>
	</defs>
	<use xlink:href="#SVGID_1_"  style="overflow:visible;fill:#FFFFFF;"/>
	<clipPath id="SVGID_2_">
		<use xlink:href="#SVGID_1_"  style="overflow:visible;"/>
	</clipPath>
	<g class="st1">
		<g>
			<defs>
				<rect id="SVGID_3_" width="89.4" height="131.2"/>
			</defs>
			<use xlink:href="#SVGID_3_"  style="overflow:visible;fill:#FFFFFF;"/>
			<clipPath id="SVGID_4_">
				<use xlink:href="#SVGID_3_"  style="overflow:visible;"/>
			</clipPath>
			<rect x="0" class="st2" width="26.1" height="131.2"/>
			<rect x="26.1" class="st2" width="2.2" height="131.2"/>
			<rect x="28.3" class="st2" width="2.2" height="131.2"/>
			<rect x="30.4" class="st2" width="2.2" height="131.2"/>
			<rect x="32.6" class="st2" width="2.2" height="131.2"/>
			<rect x="34.8" class="st2" width="2.2" height="131.2"/>
			<rect x="36.9" class="st2" width="2.2" height="131.2"/>
			<rect x="39.1" class="st2" width="2.2" height="131.2"/>
			<rect x="41.2" class="st2" width="2.2" height="131.2"/>
			<rect x="43.4" class="st2" width="2.2" height="131.2"/>
			<rect x="45.5" class="st2" width="2.2" height="131.2"/>
			<rect x="47.7" class="st2" width="2.2" height="131.2"/>
			<rect x="49.8" class="st2" width="2.2" height="131.2"/>
			<rect x="52" class="st2" width="2.2" height="131.2"/>
			<rect x="54.1" class="st2" width="2.2" height="131.2"/>
			<rect x="56.3" class="st2" width="2.2" height="131.2"/>
			<rect x="58.4" class="st2" width="2.2" height="131.2"/>
			<rect x="60.6" class="st2" width="2.2" height="131.2"/>
			<rect x="62.7" class="st2" width="2.2" height="131.2"/>
			<rect x="64.9" class="st2" width="2.2" height="131.2"/>
			<rect x="67" class="st2" width="2.2" height="131.2"/>
			<rect x="69.2" class="st2" width="2.2" height="131.2"/>
			<rect x="71.3" class="st2" width="2.2" height="131.2"/>
			<rect x="73.5" class="st2" width="2.2" height="131.2"/>
			<rect x="75.6" class="st2" width="2.2" height="131.2"/>
			<rect x="77.8" class="st2" width="2.2" height="131.2"/>
			<rect x="79.9" class="st2" width="2.2" height="131.2"/>
			<rect x="82.1" class="st2" width="2.2" height="131.2"/>
			<rect x="84.2" class="st2" width="2.2" height="131.2"/>
			<rect x="86.4" class="st2" width="2.2" height="131.2"/>
			<rect x="88.5" class="st2" width="0.9" height="131.2"/>
		</g>
	</g>
</g>
<g>
	<defs>
		<path id="SVGID_5_" d="M63.8,18.9c-2.4,0-4.3,2-4.3,4.3V63c0,2.4,1.9,4.3,4.3,4.3H85c2.4,0,10.7,0.4,10.7,13.5v46
			c0,2.4,2,4.3,4.3,4.3h44.5c2.4,0,4.3-1.9,4.3-4.3V75.3c0-34.1-22-56.4-56.1-56.4H63.8z"/>
	</defs>
	<use xlink:href="#SVGID_5_"  style="overflow:visible;fill:#FFFFFF;"/>
	<clipPath id="SVGID_6_">
		<use xlink:href="#SVGID_5_"  style="overflow:visible;"/>
	</clipPath>
	<g class="st3">
		<g>
			<defs>
				<rect id="SVGID_7_" x="59.5" y="18.9" width="89.3" height="112.2"/>
			</defs>
			<use xlink:href="#SVGID_7_"  style="overflow:visible;fill:#FFFFFF;"/>
			<clipPath id="SVGID_8_">
				<use xlink:href="#SVGID_7_"  style="overflow:visible;"/>
			</clipPath>
			<rect x="119.4" y="18.9" class="st4" width="29.5" height="112.2"/>
			<rect x="117.6" y="18.9" class="st4" width="1.8" height="112.2"/>
			<rect x="115.8" y="18.9" class="st4" width="1.8" height="112.2"/>
			<rect x="114" y="18.9" class="st4" width="1.8" height="112.2"/>
			<rect x="112.2" y="18.9" class="st4" width="1.8" height="112.2"/>
			<rect x="110.4" y="18.9" class="st4" width="1.8" height="112.2"/>
			<rect x="108.6" y="18.9" class="st4" width="1.8" height="112.2"/>
			<rect x="106.8" y="18.9" class="st4" width="1.8" height="112.2"/>
			<rect x="105" y="18.9" class="st4" width="1.8" height="112.2"/>
			<rect x="103.3" y="18.9" class="st4" width="1.8" height="112.2"/>
			<rect x="101.5" y="18.9" class="st4" width="1.8" height="112.2"/>
			<rect x="99.7" y="18.9" class="st4" width="1.8" height="112.2"/>
			<rect x="97.9" y="18.9" class="st4" width="1.8" height="112.2"/>
			<rect x="96.1" y="18.9" class="st4" width="1.8" height="112.2"/>
			<rect x="94.3" y="18.9" class="st4" width="1.8" height="112.2"/>
			<rect x="92.5" y="18.9" class="st4" width="1.8" height="112.2"/>
			<rect x="90.7" y="18.9" class="st4" width="1.8" height="112.2"/>
			<rect x="88.9" y="18.9" class="st4" width="1.8" height="112.2"/>
			<rect x="87.1" y="18.9" class="st4" width="1.8" height="112.2"/>
			<rect x="85.3" y="18.9" class="st4" width="1.8" height="112.2"/>
			<rect x="83.5" y="18.9" class="st4" width="1.8" height="112.2"/>
			<rect x="81.8" y="18.9" class="st4" width="1.8" height="112.2"/>
			<rect x="80" y="18.9" class="st4" width="1.8" height="112.2"/>
			<rect x="78.2" y="18.9" class="st4" width="1.8" height="112.2"/>
			<rect x="76.4" y="18.9" class="st4" width="1.8" height="112.2"/>
			<rect x="74.6" y="18.9" class="st4" width="1.8" height="112.2"/>
			<rect x="72.8" y="18.9" class="st4" width="1.8" height="112.2"/>
			<rect x="71" y="18.9" class="st4" width="1.8" height="112.2"/>
			<rect x="69.2" y="18.9" class="st4" width="1.8" height="112.2"/>
			<rect x="67.4" y="18.9" class="st4" width="1.8" height="112.2"/>
			<rect x="65.6" y="18.9" class="st4" width="1.8" height="112.2"/>
			<rect x="59.5" y="18.9" class="st4" width="6.1" height="112.2"/>
		</g>
	</g>
</g>
</svg>
